<mxfile host="Electron" agent="Mozilla/5.0 (Macintosh; Intel Mac OS X 10_15_7) AppleWebKit/537.36 (KHTML, like Gecko) draw.io/27.0.9 Chrome/134.0.6998.205 Electron/35.4.0 Safari/537.36" version="27.0.9">
  <diagram name="Seite-1" id="NrbdtOU8l5xmAe7ymhUr">
    <mxGraphModel dx="1410" dy="774" grid="1" gridSize="10" guides="1" tooltips="1" connect="1" arrows="1" fold="1" page="1" pageScale="1" pageWidth="827" pageHeight="1169" math="0" shadow="0">
      <root>
        <mxCell id="0" />
        <mxCell id="1" parent="0" />
        <mxCell id="RdqvmWUOzIeY4LXUXr3X-3" value="" style="rounded=0;whiteSpace=wrap;html=1;" vertex="1" parent="1">
          <mxGeometry x="20" y="50" width="779" height="280" as="geometry" />
        </mxCell>
        <mxCell id="eQGWegekin0o1_Gf9wDu-5" style="edgeStyle=orthogonalEdgeStyle;rounded=0;orthogonalLoop=1;jettySize=auto;html=1;exitX=1;exitY=0.5;exitDx=0;exitDy=0;entryX=0;entryY=0.5;entryDx=0;entryDy=0;" parent="1" source="eQGWegekin0o1_Gf9wDu-2" target="eQGWegekin0o1_Gf9wDu-3" edge="1">
          <mxGeometry relative="1" as="geometry" />
        </mxCell>
        <mxCell id="eQGWegekin0o1_Gf9wDu-2" value="Schritt 1" style="shape=document;whiteSpace=wrap;html=1;boundedLbl=1;fontSize=16;" parent="1" vertex="1">
          <mxGeometry x="50" y="80" width="120" height="80" as="geometry" />
        </mxCell>
        <mxCell id="73rr_FjuBhcJZTZMzzjQ-4" style="edgeStyle=orthogonalEdgeStyle;rounded=0;orthogonalLoop=1;jettySize=auto;html=1;exitX=1;exitY=0.25;exitDx=0;exitDy=0;entryX=0;entryY=0.25;entryDx=0;entryDy=0;" parent="1" source="eQGWegekin0o1_Gf9wDu-3" target="eQGWegekin0o1_Gf9wDu-4" edge="1">
          <mxGeometry relative="1" as="geometry" />
        </mxCell>
        <mxCell id="73rr_FjuBhcJZTZMzzjQ-6" style="edgeStyle=orthogonalEdgeStyle;rounded=0;orthogonalLoop=1;jettySize=auto;html=1;exitX=0;exitY=0.5;exitDx=0;exitDy=0;entryX=0;entryY=0.5;entryDx=0;entryDy=0;" parent="1" source="eQGWegekin0o1_Gf9wDu-4" target="73rr_FjuBhcJZTZMzzjQ-5" edge="1">
          <mxGeometry relative="1" as="geometry" />
        </mxCell>
        <mxCell id="7fS5oWLQzM0IxhjuAHD0-2" style="edgeStyle=orthogonalEdgeStyle;rounded=0;orthogonalLoop=1;jettySize=auto;html=1;exitX=1;exitY=0.5;exitDx=0;exitDy=0;entryX=1;entryY=0.5;entryDx=0;entryDy=0;" parent="1" source="eQGWegekin0o1_Gf9wDu-3" target="7fS5oWLQzM0IxhjuAHD0-1" edge="1">
          <mxGeometry relative="1" as="geometry" />
        </mxCell>
        <mxCell id="eQGWegekin0o1_Gf9wDu-3" value="Schritt 2" style="shape=document;whiteSpace=wrap;html=1;boundedLbl=1;fontSize=16;" parent="1" vertex="1">
          <mxGeometry x="240" y="80" width="120" height="80" as="geometry" />
        </mxCell>
        <mxCell id="eQGWegekin0o1_Gf9wDu-4" value="Schritt 3" style="shape=document;whiteSpace=wrap;html=1;boundedLbl=1;fontSize=16;" parent="1" vertex="1">
          <mxGeometry x="480" y="80" width="120" height="80" as="geometry" />
        </mxCell>
        <mxCell id="7fS5oWLQzM0IxhjuAHD0-15" style="edgeStyle=orthogonalEdgeStyle;rounded=0;orthogonalLoop=1;jettySize=auto;html=1;exitX=1;exitY=0.5;exitDx=0;exitDy=0;entryX=0;entryY=0.5;entryDx=0;entryDy=0;" parent="1" source="73rr_FjuBhcJZTZMzzjQ-5" target="7fS5oWLQzM0IxhjuAHD0-14" edge="1">
          <mxGeometry relative="1" as="geometry" />
        </mxCell>
        <mxCell id="73rr_FjuBhcJZTZMzzjQ-5" value="Schritt 4" style="shape=document;whiteSpace=wrap;html=1;boundedLbl=1;fontSize=16;" parent="1" vertex="1">
          <mxGeometry x="480" y="220" width="120" height="80" as="geometry" />
        </mxCell>
        <mxCell id="7fS5oWLQzM0IxhjuAHD0-1" value="Schritt 6" style="shape=document;whiteSpace=wrap;html=1;boundedLbl=1;fontSize=16;" parent="1" vertex="1">
          <mxGeometry x="160" y="220" width="120" height="80" as="geometry" />
        </mxCell>
        <mxCell id="7fS5oWLQzM0IxhjuAHD0-14" value="Schritt 5" style="shape=document;whiteSpace=wrap;html=1;boundedLbl=1;fontSize=16;" parent="1" vertex="1">
          <mxGeometry x="650" y="220" width="120" height="80" as="geometry" />
        </mxCell>
      </root>
    </mxGraphModel>
  </diagram>
</mxfile>
